<?xml version="1.0" standalone="no"?>
<!DOCTYPE svg PUBLIC "-//W3C//DTD SVG 20010904//EN"
 "http://www.w3.org/TR/2001/REC-SVG-20010904/DTD/svg10.dtd">
<svg version="1.0" xmlns="http://www.w3.org/2000/svg"
 width="270.000000pt" height="270.000000pt" viewBox="0 0 270.000000 270.000000"
 preserveAspectRatio="xMidYMid meet">

<g transform="translate(0.000000,270.000000) scale(0.100000,-0.100000)"
fill="#000000" stroke="none">
<path d="M896 2295 c-176 -44 -347 -174 -435 -330 -58 -101 -83 -191 -89 -312
-6 -137 13 -231 68 -341 74 -147 183 -253 331 -321 96 -45 172 -62 284 -62
160 -1 291 39 410 125 46 33 50 34 67 19 12 -10 18 -30 18 -57 0 -40 4 -46
268 -309 l267 -267 73 73 c39 40 72 77 72 82 0 6 -118 128 -263 273 -257 257
-263 262 -303 262 -27 0 -47 6 -57 18 -15 17 -14 21 20 67 82 114 124 248 125
394 0 199 -63 352 -202 492 -92 92 -157 135 -272 176 -61 22 -94 27 -198 29
-87 3 -143 -1 -184 -11z m323 -217 c80 -27 129 -59 192 -125 229 -240 161
-622 -136 -769 -195 -96 -416 -56 -565 102 -307 328 -53 854 395 816 33 -3 84
-13 114 -24z"/>
</g>
</svg>
